<svg width="97" height="95" viewBox="0 0 97 95" fill="none" xmlns="http://www.w3.org/2000/svg">
<path d="M86.8334 18.1667H10.1667C4.89584 18.1667 0.583344 22.4792 0.583344 27.75V85.25C0.583344 90.5208 4.89584 94.8333 10.1667 94.8333H86.8334C92.1042 94.8333 96.4167 90.5208 96.4167 85.25V27.75C96.4167 22.4792 92.1042 18.1667 86.8334 18.1667ZM84.9167 38.5313L53.5792 58.1292C50.4646 60.0937 46.5354 60.0937 43.4208 58.1292L12.0833 38.5313C10.8854 37.7646 10.1667 36.4708 10.1667 35.0813C10.1667 31.8708 13.6646 29.9542 16.3958 31.6313L48.5 51.7083L80.6042 31.6313C83.3354 29.9542 86.8334 31.8708 86.8334 35.0813C86.8334 36.4708 86.1146 37.7646 84.9167 38.5313Z" fill="#FFCE22"/>
<path d="M84.125 8.74791C83.6104 8.74791 83.0958 8.94583 82.7396 9.34166L79.6125 12.4687C78.8208 13.2604 77.5937 13.2604 76.8021 12.4687L73.675 9.34166C72.8833 8.54999 71.6562 8.54999 70.8646 9.34166L67.7375 12.4687C66.9458 13.2604 65.7187 13.2604 64.9271 12.4687L61.8 9.34166C61.0083 8.54999 59.7812 8.54999 58.9896 9.34166L55.8625 12.4687C55.0708 13.2604 53.8437 13.2604 53.0521 12.4687L49.925 9.34166C49.1333 8.54999 47.9062 8.54999 47.1146 9.34166L43.9875 12.4687C43.1958 13.2604 41.9687 13.2604 41.1771 12.4687L38.0104 9.30208C37.2188 8.51041 35.9917 8.51041 35.2 9.30208L32.0729 12.4687C31.2812 13.2604 30.0542 13.2604 29.2625 12.4687L26.1354 9.30208C25.3437 8.51041 24.1167 8.51041 23.325 9.30208L20.1979 12.4687C19.4062 13.2604 18.1792 13.2604 17.3875 12.4687L14.2604 9.30208C13.9042 8.94583 13.3896 8.74791 12.875 8.74791V86.2916C13.3896 86.2916 13.9042 86.0937 14.2604 85.6979L17.3875 82.5708C18.1792 81.7792 19.4062 81.7792 20.1979 82.5708L23.325 85.6979C24.1167 86.4896 25.3437 86.4896 26.1354 85.6979L29.2625 82.5708C30.0542 81.7792 31.2812 81.7792 32.0729 82.5708L35.2 85.6979C35.9917 86.4896 37.2188 86.4896 38.0104 85.6979L41.1375 82.5708C41.9292 81.7792 43.1563 81.7792 43.9479 82.5708L47.075 85.6979C47.8667 86.4896 49.0938 86.4896 49.8854 85.6979L53.0125 82.5708C53.8042 81.7792 55.0313 81.7792 55.8229 82.5708L58.95 85.6979C59.7417 86.4896 60.9688 86.4896 61.7604 85.6979L64.8875 82.5708C65.6792 81.7792 66.9063 81.7792 67.6979 82.5708L70.825 85.6979C71.6167 86.4896 72.8438 86.4896 73.6354 85.6979L76.7625 82.5708C77.5542 81.7792 78.7813 81.7792 79.5729 82.5708L82.7 85.6979C83.0958 86.0937 83.6104 86.2916 84.0854 86.2916V8.74791H84.125ZM68.2917 67.2917H28.7083C26.5312 67.2917 24.75 65.5104 24.75 63.3333C24.75 61.1562 26.5312 59.375 28.7083 59.375H68.2917C70.4687 59.375 72.25 61.1562 72.25 63.3333C72.25 65.5104 70.4687 67.2917 68.2917 67.2917ZM68.2917 51.4583H28.7083C26.5312 51.4583 24.75 49.6771 24.75 47.5C24.75 45.3229 26.5312 43.5417 28.7083 43.5417H68.2917C70.4687 43.5417 72.25 45.3229 72.25 47.5C72.25 49.6771 70.4687 51.4583 68.2917 51.4583ZM68.2917 35.625H28.7083C26.5312 35.625 24.75 33.8437 24.75 31.6667C24.75 29.4896 26.5312 27.7083 28.7083 27.7083H68.2917C70.4687 27.7083 72.25 29.4896 72.25 31.6667C72.25 33.8437 70.4687 35.625 68.2917 35.625Z" fill="#2D2D2D"/>
<path d="M0.583344 85.25V27.75L10.1667 35.0812C10.1667 36.4708 10.8854 37.7646 12.0833 38.5312L43.4208 58.1292C46.5354 60.0937 50.4646 60.0937 53.5792 58.1292L84.9167 38.5312C86.1146 37.7646 86.8334 36.4708 86.8334 35.0812L96.4167 27.75V85.25C96.4167 90.5208 92.1042 94.8333 86.8334 94.8333H10.1667C4.89584 94.8333 0.583344 90.5208 0.583344 85.25Z" fill="#FFCE22"/>
</svg>
